<?xml version="1.0" encoding="utf-8"?>
<!-- Generator: Adobe Illustrator 14.0.0, SVG Export Plug-In . SVG Version: 6.00 Build 43363)  -->
<!DOCTYPE svg PUBLIC "-//W3C//DTD SVG 1.1//EN" "http://www.w3.org/Graphics/SVG/1.1/DTD/svg11.dtd">
<svg version="1.1"
	 id="svg2" inkscape:export-filename="/home/thockin/src/kubernetes/new.png" inkscape:version="0.48.4 r9939" sodipodi:docname="logo.svg" inkscape:export-xdpi="460.95001" inkscape:export-ydpi="460.95001" xmlns:svg="http://www.w3.org/2000/svg" xmlns:dc="http://purl.org/dc/elements/1.1/" xmlns:sodipodi="http://sodipodi.sourceforge.net/DTD/sodipodi-0.dtd" xmlns:cc="http://creativecommons.org/ns#" xmlns:rdf="http://www.w3.org/1999/02/22-rdf-syntax-ns#" xmlns:inkscape="http://www.inkscape.org/namespaces/inkscape"
	 xmlns="http://www.w3.org/2000/svg" xmlns:xlink="http://www.w3.org/1999/xlink" x="0px" y="0px" width="361.4px" height="359.7px"
	 viewBox="181.4 531 361.4 359.7" style="enable-background:new 181.4 531 361.4 359.7;" xml:space="preserve">
<style type="text/css">
<![CDATA[
	.st0{fill:#326CE5;}
	.st1{fill:#326DE5;}
	.st2{fill:#FFFFFF;stroke:#FFFFFF;stroke-width:0.25;}
]]>
</style>
<sodipodi:namedview  id="base" inkscape:current-layer="g3052" fit-margin-bottom="10" fit-margin-right="10" inkscape:window-y="25" inkscape:snap-global="false" inkscape:window-x="51" inkscape:window-height="822" inkscape:window-width="1519" inkscape:document-units="px" inkscape:pageshadow="2" inkscape:pageopacity="0.0" inkscape:window-maximized="0" inkscape:cx="277.56851" inkscape:cy="157.54494" inkscape:zoom="16.190509" showgrid="false" pagecolor="#ffffff" fit-margin-top="10" borderopacity="1.0" fit-margin-left="10" bordercolor="#666666">
	</sodipodi:namedview>
<g id="layer1" transform="translate(-6.3260942,-174.7524)" inkscape:groupmode="layer" inkscape:label="Layer 1">
	<g id="g3052">
		
			<path id="path3055" inkscape:export-filename="new.png" inkscape:export-xdpi="250.55" inkscape:export-ydpi="250.55" inkscape:connector-curvature="0" class="st0" d="
			M367.4,758.2c-1.5,0.1-3,0.5-4.4,1.1l-59.4,28.4c-3.1,1.5-5.4,4.3-6.1,7.6l-14.7,63.8c-0.7,3-0.1,6.1,1.5,8.6
			c0.2,0.3,0.4,0.6,0.6,0.9l41.1,51.1c2.2,2.7,5.4,4.2,8.9,4.2l66,0c3.5,0,6.7-1.6,8.9-4.2l41.1-51.1c2.2-2.7,3-6.2,2.2-9.5
			l-14.7-63.8c-0.8-3.3-3-6.2-6.1-7.6l-59.4-28.4C371.2,758.4,369.3,758.1,367.4,758.2z"/>
		
			<path id="path3059" inkscape:export-filename="./path3059.png" inkscape:export-xdpi="250.55" inkscape:export-ydpi="250.55" sodipodi:nodetypes="ccccccccsccccscssccsccccccccscccsccccccccccccccscccscsccsccccscscsccccccccscccscsccccsccccscscscccccccccccccccscccsccccccccccccscccccscccccccccccccccccccccccscccscccccccccscccscccc" inkscape:connector-curvature="0" class="st2" d="
			M368,779.9c-2,0-3.6,1.8-3.6,4c0,0,0,0.1,0,0.1c0,0.3,0,0.7,0,0.9c0,1.3,0.3,2.2,0.5,3.4c0.3,2.5,0.5,4.5,0.4,6.5
			c-0.2,0.7-0.7,1.4-1.2,1.8L364,798c-2.1,0.2-4.3,0.5-6.4,1c-9.2,2.1-17.2,6.9-23.2,13.3c-0.4-0.3-1.1-0.8-1.3-0.9
			c-0.6,0.1-1.3,0.3-2.1-0.2c-1.6-1.1-3-2.6-4.8-4.3c-0.8-0.9-1.4-1.7-2.3-2.5c-0.2-0.2-0.5-0.4-0.8-0.6c-0.7-0.6-1.6-0.9-2.5-0.9
			c-1.1,0-2.1,0.4-2.8,1.3c-1.2,1.5-0.8,3.9,0.9,5.2c0,0,0,0,0.1,0c0.2,0.2,0.5,0.4,0.7,0.6c1,0.7,1.9,1.1,2.9,1.7
			c2.1,1.3,3.9,2.4,5.3,3.7c0.5,0.6,0.6,1.6,0.7,2.1l1.1,1c-6.1,9.2-8.9,20.5-7.3,32.1l-1.5,0.4c-0.4,0.5-0.9,1.3-1.5,1.5
			c-1.8,0.6-3.9,0.8-6.4,1c-1.2,0.1-2.2,0-3.4,0.3c-0.3,0.1-0.7,0.1-1,0.2c0,0,0,0,0,0c0,0,0,0-0.1,0c-2.1,0.5-3.4,2.4-3,4.3
			c0.4,1.9,2.5,3.1,4.6,2.6c0,0,0,0,0.1,0c0,0,0,0,0.1,0c0.3-0.1,0.7-0.1,0.9-0.2c1.2-0.3,2.1-0.8,3.2-1.2c2.4-0.8,4.3-1.5,6.2-1.8
			c0.8-0.1,1.6,0.5,2,0.7l1.6-0.3c3.6,11.1,11,20,20.5,25.6l-0.6,1.6c0.2,0.6,0.5,1.4,0.3,2c-0.7,1.8-1.9,3.7-3.2,5.8
			c-0.7,1-1.3,1.7-1.9,2.8c-0.1,0.3-0.3,0.7-0.5,1c-0.9,2-0.2,4.2,1.5,5.1c1.8,0.9,4,0,4.9-2c0,0,0,0,0,0c0,0,0,0,0,0
			c0.1-0.3,0.3-0.6,0.4-0.9c0.5-1.2,0.7-2.1,1-3.3c0.9-2.4,1.5-4.8,2.8-6.4c0.4-0.4,0.9-0.6,1.5-0.7l0.8-1.5
			c8.3,3.2,17.5,4,26.7,1.9c2.1-0.5,4.1-1.1,6.1-1.8c0.2,0.4,0.6,1.2,0.8,1.4c0.6,0.2,1.3,0.3,1.8,1.1c1,1.7,1.6,3.6,2.4,6
			c0.4,1.1,0.5,2.1,1,3.3c0.1,0.3,0.3,0.6,0.4,0.9c0.9,2,3.1,2.9,4.9,2c1.8-0.8,2.4-3.1,1.5-5.1c-0.1-0.3-0.3-0.7-0.5-1
			c-0.6-1.1-1.3-1.9-1.9-2.8c-1.3-2.1-2.5-3.9-3.2-5.6c-0.3-0.9,0-1.5,0.3-2.1c-0.1-0.2-0.4-1-0.6-1.4c9.8-5.8,17.1-15.1,20.5-25.8
			c0.5,0.1,1.3,0.2,1.5,0.3c0.5-0.4,1-0.8,2-0.7c1.9,0.3,3.8,1,6.2,1.8c1.1,0.4,2,0.9,3.2,1.2c0.3,0.1,0.6,0.1,0.9,0.2
			c0,0,0,0,0.1,0c0,0,0,0,0.1,0c2.1,0.5,4.2-0.7,4.6-2.6c0.4-1.9-0.9-3.8-3-4.3c-0.3-0.1-0.7-0.2-1-0.2c-1.2-0.2-2.2-0.2-3.4-0.3
			c-2.5-0.3-4.5-0.5-6.4-1c-0.7-0.3-1.3-1.2-1.5-1.5l-1.4-0.4c0.7-5.4,0.5-11-0.7-16.6c-1.3-5.7-3.6-10.8-6.7-15.4
			c0.4-0.3,1.1-1,1.3-1.1c0.1-0.6,0-1.3,0.7-2c1.4-1.3,3.2-2.4,5.3-3.7c1-0.6,1.9-1,3-1.7c0.2-0.2,0.5-0.4,0.8-0.6
			c1.7-1.4,2.1-3.7,0.9-5.2c-1.2-1.5-3.6-1.7-5.3-0.3c-0.2,0.2-0.6,0.4-0.8,0.6c-1,0.8-1.5,1.6-2.3,2.5c-1.8,1.8-3.2,3.3-4.8,4.3
			c-0.7,0.4-1.7,0.3-2.2,0.2l-1.4,1c-7.7-8.1-18.2-13.3-29.5-14.3c0-0.5-0.1-1.3-0.1-1.6c-0.5-0.4-1-0.8-1.2-1.8
			c-0.2-1.9,0.1-4,0.4-6.5c0.2-1.2,0.4-2.1,0.5-3.4c0-0.3,0-0.7,0-1C371.5,781.6,369.9,779.9,368,779.9L368,779.9z M363.5,807.5
			l-1.1,18.7l-0.1,0c-0.1,1.7-1.4,3-3.1,3c-0.7,0-1.3-0.2-1.8-0.6l0,0l-15.3-10.8c4.7-4.6,10.7-8,17.6-9.6
			C361,807.8,362.2,807.6,363.5,807.5z M372.4,807.5c8.1,1,15.6,4.7,21.3,10.3l-15.2,10.8l-0.1,0c-1.3,1-3.3,0.7-4.3-0.6
			c-0.4-0.5-0.7-1.2-0.7-1.8l0,0L372.4,807.5z M336.5,824.7l14,12.5l0,0.1c1.3,1.1,1.4,3,0.4,4.3c-0.4,0.5-1,0.9-1.6,1.1l0,0.1
			l-17.9,5.2C330.4,839.5,332.4,831.4,336.5,824.7z M399.3,824.7c2.1,3.4,3.6,7.1,4.6,11.2c0.9,4,1.2,8,0.8,11.9l-18-5.2l0-0.1
			c-1.6-0.4-2.6-2.1-2.2-3.7c0.2-0.7,0.5-1.2,1-1.7l0,0L399.3,824.7z M365.1,838.2h5.7l3.6,4.4l-1.3,5.5l-5.1,2.5l-5.2-2.5l-1.3-5.5
			L365.1,838.2z M383.4,853.4c0.2,0,0.5,0,0.7,0.1l0,0l18.5,3.1c-2.7,7.6-7.9,14.2-14.8,18.6l-7.2-17.4l0,0c-0.7-1.5,0-3.3,1.5-4.1
			C382.6,853.5,383,853.4,383.4,853.4L383.4,853.4z M352.3,853.4c1.4,0,2.7,1,3,2.4c0.2,0.7,0.1,1.3-0.2,1.9l0.1,0.1l-7.1,17.2
			c-6.7-4.3-11.9-10.7-14.8-18.5l18.4-3.1l0,0C351.9,853.5,352.1,853.4,352.3,853.4L352.3,853.4z M367.8,861c0.5,0,1,0.1,1.5,0.3
			c0.6,0.3,1.1,0.8,1.4,1.3h0.1l9.1,16.4c-1.2,0.4-2.4,0.7-3.6,1c-6.9,1.6-13.8,1.1-20.1-1l9-16.3h0
			C365.7,861.6,366.8,861,367.8,861z"/>
	</g>
</g>
<g id="layer1_1_" transform="translate(-6.1051208,-305.36552)" inkscape:groupmode="layer" inkscape:label="Layer 1">
	<g id="text4373">
		<path id="path2985" class="st1" d="M222.7,1124c0.8-0.9,1.7-1.9,2.6-2.9c0.9-1,1.8-2,2.7-2.9c0.8-1,1.6-1.9,2.4-2.8
			c0.8-0.9,1.4-1.7,2-2.3h10.2c-2,2.3-4,4.6-6,6.8c-1.9,2.1-4,4.3-6.3,6.6c1.2,1,2.3,2.3,3.6,3.8c1.2,1.4,2.4,2.9,3.6,4.4
			c1.2,1.5,2.2,3.1,3.2,4.6c1,1.5,1.8,2.9,2.4,4.2h-9.9c-0.6-1-1.3-2.1-2.1-3.3c-0.8-1.2-1.6-2.4-2.5-3.6c-0.9-1.2-1.8-2.4-2.8-3.5
			c-1-1.1-1.9-2.1-2.9-2.8v13.3h-8.6V1100l8.6-1.4V1124"/>
		<path id="path2987" class="st1" d="M272.8,1142.4c-1.5,0.4-3.3,0.8-5.7,1.2c-2.3,0.4-4.7,0.6-7.3,0.6c-2.6,0-4.7-0.3-6.5-1
			c-1.7-0.7-3-1.7-4-2.9c-1-1.3-1.7-2.8-2.1-4.5c-0.4-1.7-0.6-3.6-0.6-5.7v-16.9h8.6v15.9c0,2.8,0.4,4.8,1.1,6
			c0.7,1.2,2.1,1.8,4.1,1.8c0.6,0,1.3,0,2-0.1c0.7-0.1,1.3-0.2,1.8-0.2v-23.4h8.6V1142.4"/>
		<path id="path2989" class="st1" d="M300.4,1128c0-5.5-2-8.3-6.1-8.3c-0.9,0-1.8,0.1-2.7,0.3c-0.8,0.2-1.5,0.5-2.1,0.9v15.6
			c0.4,0.1,1,0.2,1.6,0.2c0.7,0,1.4,0.1,2.1,0.1c2.3,0,4.1-0.8,5.3-2.4C299.8,1132.8,300.4,1130.7,300.4,1128 M309.2,1128.2
			c0,2.4-0.4,4.6-1.1,6.6c-0.7,2-1.7,3.6-3.1,5s-3,2.5-5,3.2c-2,0.7-4.2,1.1-6.7,1.1c-1,0-2.1-0.1-3.3-0.2c-1.1-0.1-2.2-0.2-3.3-0.3
			c-1.1-0.2-2.1-0.3-3.1-0.5c-1-0.2-1.9-0.5-2.7-0.7V1100l8.6-1.4v15.1c1-0.4,2-0.8,3-1c1-0.2,2.2-0.3,3.3-0.3
			c2.2,0,4.1,0.4,5.7,1.2c1.7,0.7,3,1.8,4.2,3.2c1.1,1.4,2,3.1,2.5,5C308.9,1123.7,309.2,1125.9,309.2,1128.2"/>
		<path id="path2991" class="st1" d="M314.4,1128.5c0-2.7,0.4-5,1.2-7c0.8-2,1.9-3.7,3.3-5.1c1.3-1.3,2.9-2.4,4.6-3.1
			c1.8-0.7,3.6-1,5.4-1c4.3,0,7.7,1.3,10.2,4c2.5,2.6,3.8,6.5,3.8,11.6c0,0.5,0,1.1-0.1,1.7c0,0.6-0.1,1.1-0.1,1.6h-19.5
			c0.2,1.8,1,3.2,2.5,4.2c1.5,1,3.4,1.6,5.9,1.6c1.6,0,3.1-0.1,4.6-0.4c1.5-0.3,2.8-0.7,3.8-1.1l1.2,7c-0.5,0.2-1.1,0.5-1.8,0.7
			c-0.8,0.2-1.6,0.4-2.6,0.6c-0.9,0.2-1.9,0.3-3,0.5c-1.1,0.1-2.2,0.2-3.2,0.2c-2.7,0-5.1-0.4-7.2-1.2c-2-0.8-3.7-1.9-5-3.3
			c-1.3-1.4-2.3-3.1-2.9-5C314.7,1132.8,314.4,1130.7,314.4,1128.5 M334.6,1125.2c0-0.7-0.2-1.4-0.4-2.1c-0.2-0.7-0.5-1.3-1-1.8
			c-0.4-0.5-1-1-1.7-1.3c-0.7-0.3-1.5-0.5-2.5-0.5c-1,0-1.8,0.2-2.5,0.5c-0.7,0.3-1.3,0.7-1.7,1.3c-0.5,0.5-0.8,1.2-1.1,1.9
			c-0.2,0.7-0.4,1.4-0.5,2.1H334.6"/>
		<path id="path2993" class="st1" d="M367.8,1120.7c-0.8-0.2-1.7-0.4-2.7-0.6c-1-0.2-2.2-0.3-3.3-0.3c-0.5,0-1.2,0.1-2,0.2
			c-0.7,0.1-1.3,0.2-1.7,0.3v23.2h-8.6v-28.7c1.5-0.5,3.3-1,5.4-1.5c2.1-0.5,4.5-0.8,7-0.8c0.5,0,1,0,1.7,0.1c0.7,0,1.3,0.1,2,0.2
			c0.7,0.1,1.3,0.2,2,0.3c0.7,0.1,1.2,0.3,1.7,0.5L367.8,1120.7"/>
		<path id="path2995" class="st1" d="M373.9,1114.1c1.5-0.4,3.3-0.8,5.7-1.2c2.3-0.4,4.7-0.6,7.3-0.6c2.6,0,4.7,0.3,6.4,1
			c1.7,0.7,3.1,1.6,4.1,2.8c1,1.2,1.7,2.7,2.1,4.4c0.4,1.7,0.6,3.6,0.6,5.7v17.1h-8.6v-16.1c0-2.8-0.4-4.7-1.1-5.9
			c-0.7-1.2-2.1-1.7-4.1-1.7c-0.6,0-1.3,0-2,0.1c-0.7,0-1.3,0.1-1.8,0.2v23.4h-8.6V1114.1"/>
		<path id="path2997" class="st1" d="M406.5,1128.5c0-2.7,0.4-5,1.2-7c0.8-2,1.9-3.7,3.3-5.1c1.3-1.3,2.9-2.4,4.6-3.1
			c1.8-0.7,3.6-1,5.4-1c4.3,0,7.7,1.3,10.2,4c2.5,2.6,3.8,6.5,3.8,11.6c0,0.5,0,1.1-0.1,1.7c0,0.6-0.1,1.1-0.1,1.6h-19.5
			c0.2,1.8,1,3.2,2.5,4.2c1.5,1,3.4,1.6,5.9,1.6c1.6,0,3.1-0.1,4.6-0.4c1.5-0.3,2.8-0.7,3.8-1.1l1.2,7c-0.5,0.2-1.1,0.5-1.8,0.7
			c-0.8,0.2-1.6,0.4-2.6,0.6c-0.9,0.2-1.9,0.3-3,0.5c-1.1,0.1-2.2,0.2-3.2,0.2c-2.7,0-5.1-0.4-7.2-1.2c-2-0.8-3.7-1.9-5-3.3
			c-1.3-1.4-2.3-3.1-2.9-5C406.8,1132.8,406.5,1130.7,406.5,1128.5 M426.7,1125.2c0-0.7-0.2-1.4-0.4-2.1c-0.2-0.7-0.5-1.3-1-1.8
			c-0.4-0.5-1-1-1.7-1.3c-0.7-0.3-1.5-0.5-2.5-0.5c-1,0-1.8,0.2-2.5,0.5c-0.7,0.3-1.3,0.7-1.7,1.3c-0.5,0.5-0.8,1.2-1.1,1.9
			c-0.2,0.7-0.4,1.4-0.5,2.1H426.7"/>
		<path id="path2999" class="st1" d="M441.3,1105.5l8.6-1.4v8.9h10.3v7.2h-10.3v10.7c0,1.8,0.3,3.3,0.9,4.3c0.7,1.1,1.9,1.6,3.9,1.6
			c0.9,0,1.9-0.1,2.8-0.2c1-0.2,1.9-0.4,2.7-0.8l1.2,6.7c-1,0.4-2.2,0.8-3.5,1.1c-1.3,0.3-2.8,0.5-4.7,0.5c-2.3,0-4.3-0.3-5.8-0.9
			c-1.5-0.7-2.8-1.5-3.7-2.7c-0.9-1.2-1.6-2.5-2-4.2c-0.3-1.6-0.5-3.4-0.5-5.4V1105.5"/>
		<path id="path3001" class="st1" d="M464.6,1128.5c0-2.7,0.4-5,1.2-7c0.8-2,1.9-3.7,3.3-5.1c1.3-1.3,2.9-2.4,4.6-3.1
			c1.8-0.7,3.6-1,5.4-1c4.3,0,7.7,1.3,10.2,4c2.5,2.6,3.8,6.5,3.8,11.6c0,0.5,0,1.1-0.1,1.7c0,0.6-0.1,1.1-0.1,1.6h-19.5
			c0.2,1.8,1,3.2,2.5,4.2c1.5,1,3.4,1.6,5.9,1.6c1.6,0,3.1-0.1,4.6-0.4c1.5-0.3,2.8-0.7,3.8-1.1l1.2,7c-0.5,0.2-1.1,0.5-1.8,0.7
			c-0.8,0.2-1.6,0.4-2.6,0.6c-0.9,0.2-1.9,0.3-3,0.5c-1.1,0.1-2.2,0.2-3.2,0.2c-2.7,0-5.1-0.4-7.2-1.2c-2-0.8-3.7-1.9-5-3.3
			c-1.3-1.4-2.3-3.1-2.9-5C464.9,1132.8,464.6,1130.7,464.6,1128.5 M484.8,1125.2c0-0.7-0.2-1.4-0.4-2.1c-0.2-0.7-0.5-1.3-1-1.8
			c-0.4-0.5-1-1-1.7-1.3c-0.7-0.3-1.5-0.5-2.5-0.5c-1,0-1.8,0.2-2.5,0.5c-0.7,0.3-1.3,0.7-1.7,1.3c-0.5,0.5-0.8,1.2-1.1,1.9
			c-0.2,0.7-0.4,1.4-0.5,2.1H484.8"/>
		<path id="path3003" class="st1" d="M508.5,1137.2c1.6,0,2.7-0.2,3.3-0.5c0.7-0.3,1-0.9,1-1.8c0-0.7-0.4-1.3-1.3-1.8
			c-0.8-0.5-2.1-1.1-3.9-1.8c-1.3-0.5-2.6-1-3.7-1.6c-1.1-0.5-2-1.2-2.8-1.9c-0.8-0.8-1.4-1.7-1.8-2.7c-0.4-1-0.6-2.3-0.6-3.8
			c0-2.8,1.1-5.1,3.2-6.8c2.1-1.7,5-2.5,8.7-2.5c1.8,0,3.6,0.2,5.3,0.5c1.7,0.3,3,0.7,4,1l-1.5,6.7c-1-0.3-2.1-0.7-3.3-0.9
			c-1.2-0.3-2.5-0.4-3.9-0.4c-2.7,0-4,0.8-4,2.3c0,0.3,0.1,0.7,0.2,0.9c0.1,0.3,0.3,0.5,0.7,0.8c0.3,0.2,0.8,0.5,1.4,0.8
			c0.6,0.3,1.4,0.6,2.3,0.9c1.9,0.7,3.4,1.4,4.7,2.1c1.2,0.7,2.2,1.4,2.9,2.2c0.7,0.8,1.2,1.6,1.5,2.6c0.3,1,0.5,2.1,0.5,3.3
			c0,3-1.1,5.3-3.4,6.8c-2.2,1.5-5.4,2.3-9.5,2.3c-2.7,0-4.9-0.2-6.8-0.7c-1.8-0.5-3-0.8-3.7-1.2l1.4-7c1.5,0.6,3,1,4.5,1.4
			C505.5,1137.1,507,1137.2,508.5,1137.2"/>
	</g>
</g>
</svg>
